<svg width="90" height="21" viewBox="0 0 90 21" fill="none" xmlns="http://www.w3.org/2000/svg">
<path d="M9.99984 9.66667C11.8408 9.66667 13.3332 8.17428 13.3332 6.33333C13.3332 4.49238 11.8408 3 9.99984 3C8.15889 3 6.6665 4.49238 6.6665 6.33333C6.6665 8.17428 8.15889 9.66667 9.99984 9.66667Z" stroke="#00B307" stroke-width="1.2"/>
<path d="M12.4999 12.167H7.49995C5.19828 12.167 3.13745 14.292 4.65161 16.0245C5.68161 17.2028 7.38495 18.0003 9.99995 18.0003C12.6149 18.0003 14.3174 17.2028 15.3474 16.0245C16.8624 14.2912 14.8008 12.167 12.4999 12.167Z" stroke="#00B307" stroke-width="1.2"/>
<path d="M29.964 9.974C30.3187 10.03 30.6407 10.1747 30.93 10.408C31.2287 10.6413 31.462 10.9307 31.63 11.276C31.8073 11.6213 31.896 11.99 31.896 12.382C31.896 12.8767 31.77 13.3247 31.518 13.726C31.266 14.118 30.8973 14.4307 30.412 14.664C29.936 14.888 29.3713 15 28.718 15H25.078V5.242H28.578C29.2407 5.242 29.8053 5.354 30.272 5.578C30.7387 5.79267 31.0887 6.08667 31.322 6.46C31.5553 6.83333 31.672 7.25333 31.672 7.72C31.672 8.29867 31.5133 8.77933 31.196 9.162C30.888 9.53533 30.4773 9.806 29.964 9.974ZM26.352 9.456H28.494C29.0913 9.456 29.5533 9.316 29.88 9.036C30.2067 8.756 30.37 8.36867 30.37 7.874C30.37 7.37933 30.2067 6.992 29.88 6.712C29.5533 6.432 29.082 6.292 28.466 6.292H26.352V9.456ZM28.606 13.95C29.2407 13.95 29.7353 13.8007 30.09 13.502C30.4447 13.2033 30.622 12.788 30.622 12.256C30.622 11.7147 30.4353 11.29 30.062 10.982C29.6887 10.6647 29.1893 10.506 28.564 10.506H26.352V13.95H28.606ZM40.2719 7.328L35.6519 18.612H34.3359L35.8479 14.916L32.7539 7.328H34.1679L36.5759 13.544L38.9559 7.328H40.2719Z" fill="#808080"/>
<path d="M51.053 12.83H46.797L46.013 15H44.669L48.197 5.298H49.667L53.181 15H51.837L51.053 12.83ZM50.689 11.794L48.925 6.866L47.161 11.794H50.689ZM54.2426 11.136C54.2426 10.352 54.4013 9.666 54.7186 9.078C55.036 8.48067 55.47 8.01867 56.0206 7.692C56.5806 7.36533 57.206 7.202 57.8966 7.202C58.494 7.202 59.0493 7.342 59.5626 7.622C60.076 7.89267 60.468 8.252 60.7386 8.7V4.64H62.0266V15H60.7386V13.558C60.4866 14.0153 60.1133 14.3933 59.6186 14.692C59.124 14.9813 58.5453 15.126 57.8826 15.126C57.2013 15.126 56.5806 14.958 56.0206 14.622C55.47 14.286 55.036 13.8147 54.7186 13.208C54.4013 12.6013 54.2426 11.9107 54.2426 11.136ZM60.7386 11.15C60.7386 10.5713 60.622 10.0673 60.3886 9.638C60.1553 9.20867 59.838 8.882 59.4366 8.658C59.0446 8.42467 58.6106 8.308 58.1346 8.308C57.6586 8.308 57.2246 8.42 56.8326 8.644C56.4406 8.868 56.128 9.19467 55.8946 9.624C55.6613 10.0533 55.5446 10.5573 55.5446 11.136C55.5446 11.724 55.6613 12.2373 55.8946 12.676C56.128 13.1053 56.4406 13.4367 56.8326 13.67C57.2246 13.894 57.6586 14.006 58.1346 14.006C58.6106 14.006 59.0446 13.894 59.4366 13.67C59.838 13.4367 60.1553 13.1053 60.3886 12.676C60.622 12.2373 60.7386 11.7287 60.7386 11.15ZM73.4056 7.188C74.0029 7.188 74.5349 7.314 75.0016 7.566C75.4682 7.80867 75.8369 8.17733 76.1076 8.672C76.3782 9.16667 76.5136 9.76867 76.5136 10.478V15H75.2536V10.66C75.2536 9.89467 75.0622 9.31133 74.6796 8.91C74.3062 8.49933 73.7976 8.294 73.1536 8.294C72.4909 8.294 71.9636 8.50867 71.5716 8.938C71.1796 9.358 70.9836 9.96933 70.9836 10.772V15H69.7236V10.66C69.7236 9.89467 69.5322 9.31133 69.1496 8.91C68.7762 8.49933 68.2676 8.294 67.6236 8.294C66.9609 8.294 66.4336 8.50867 66.0416 8.938C65.6496 9.358 65.4536 9.96933 65.4536 10.772V15H64.1796V7.328H65.4536V8.434C65.7056 8.03267 66.0416 7.72467 66.4616 7.51C66.8909 7.29533 67.3622 7.188 67.8756 7.188C68.5196 7.188 69.0889 7.33267 69.5836 7.622C70.0782 7.91133 70.4469 8.336 70.6896 8.896C70.9042 8.35467 71.2589 7.93467 71.7536 7.636C72.2482 7.33733 72.7989 7.188 73.4056 7.188ZM79.2614 6.082C79.0187 6.082 78.8134 5.998 78.6454 5.83C78.4774 5.662 78.3934 5.45667 78.3934 5.214C78.3934 4.97133 78.4774 4.766 78.6454 4.598C78.8134 4.43 79.0187 4.346 79.2614 4.346C79.4947 4.346 79.6907 4.43 79.8494 4.598C80.0174 4.766 80.1014 4.97133 80.1014 5.214C80.1014 5.45667 80.0174 5.662 79.8494 5.83C79.6907 5.998 79.4947 6.082 79.2614 6.082ZM79.8774 7.328V15H78.6034V7.328H79.8774ZM85.7867 7.188C86.72 7.188 87.476 7.47267 88.0547 8.042C88.6334 8.602 88.9227 9.414 88.9227 10.478V15H87.6627V10.66C87.6627 9.89467 87.4714 9.31133 87.0887 8.91C86.706 8.49933 86.1834 8.294 85.5207 8.294C84.8487 8.294 84.312 8.504 83.9107 8.924C83.5187 9.344 83.3227 9.95533 83.3227 10.758V15H82.0487V7.328H83.3227V8.42C83.5747 8.028 83.9154 7.72467 84.3447 7.51C84.7834 7.29533 85.264 7.188 85.7867 7.188Z" fill="#4D4D4D"/>
</svg>
