<svg width="123" height="21" viewBox="0 0 123 21" fill="none" xmlns="http://www.w3.org/2000/svg">
<path d="M10.5238 15.2728L9.48206 17.0087C9.43209 17.092 9.36139 17.1609 9.27687 17.2088C9.19234 17.2566 9.09686 17.2818 8.99972 17.2818C8.90258 17.2818 8.8071 17.2566 8.72257 17.2088C8.63804 17.1609 8.56735 17.092 8.51738 17.0087L7.47675 15.2728C7.42671 15.1895 7.35596 15.1206 7.27138 15.0728C7.1868 15.025 7.09128 14.9999 6.99413 15H2.8125C2.66332 15 2.52024 14.9407 2.41475 14.8352C2.30926 14.7298 2.25 14.5867 2.25 14.4375V5.4375C2.25 5.28832 2.30926 5.14524 2.41475 5.03975C2.52024 4.93426 2.66332 4.875 2.8125 4.875H15.1875C15.3367 4.875 15.4798 4.93426 15.5852 5.03975C15.6907 5.14524 15.75 5.28832 15.75 5.4375V14.4375C15.75 14.5867 15.6907 14.7298 15.5852 14.8352C15.4798 14.9407 15.3367 15 15.1875 15H11.0059C10.9088 15 10.8134 15.0252 10.7289 15.073C10.6445 15.1208 10.5738 15.1896 10.5238 15.2728V15.2728Z" stroke="#00B307" stroke-width="1.2" stroke-linecap="round" stroke-linejoin="round"/>
<path d="M28.51 7.286C28.3047 6.25 27.6653 5.732 26.592 5.732C25.7613 5.732 25.1407 6.054 24.73 6.698C24.3193 7.33267 24.1187 8.38267 24.128 9.848C24.3427 9.36267 24.6973 8.98467 25.192 8.714C25.696 8.434 26.256 8.294 26.872 8.294C27.8333 8.294 28.5987 8.59267 29.168 9.19C29.7467 9.78733 30.036 10.6133 30.036 11.668C30.036 12.3027 29.91 12.872 29.658 13.376C29.4153 13.88 29.042 14.2813 28.538 14.58C28.0433 14.8787 27.4413 15.028 26.732 15.028C25.7707 15.028 25.0193 14.8133 24.478 14.384C23.9367 13.9547 23.5587 13.362 23.344 12.606C23.1293 11.85 23.022 10.9167 23.022 9.806C23.022 6.38067 24.2167 4.668 26.606 4.668C27.5207 4.668 28.2393 4.91533 28.762 5.41C29.2847 5.90467 29.5927 6.53 29.686 7.286H28.51ZM26.606 9.372C26.2047 9.372 25.8267 9.456 25.472 9.624C25.1173 9.78267 24.828 10.03 24.604 10.366C24.3893 10.6927 24.282 11.094 24.282 11.57C24.282 12.2793 24.4873 12.858 24.898 13.306C25.3087 13.7447 25.8967 13.964 26.662 13.964C27.3153 13.964 27.8333 13.7633 28.216 13.362C28.608 12.9513 28.804 12.4007 28.804 11.71C28.804 10.982 28.6173 10.4127 28.244 10.002C27.8707 9.582 27.3247 9.372 26.606 9.372ZM38.2087 5.984H33.2947V9.176C33.5094 8.87733 33.8267 8.63467 34.2467 8.448C34.6667 8.252 35.1194 8.154 35.6047 8.154C36.3794 8.154 37.0094 8.31733 37.4947 8.644C37.9801 8.96133 38.3254 9.37667 38.5307 9.89C38.7454 10.394 38.8527 10.9307 38.8527 11.5C38.8527 12.172 38.7267 12.774 38.4747 13.306C38.2227 13.838 37.8354 14.258 37.3127 14.566C36.7994 14.874 36.1601 15.028 35.3947 15.028C34.4147 15.028 33.6214 14.776 33.0147 14.272C32.4081 13.768 32.0394 13.096 31.9087 12.256H33.1547C33.2761 12.788 33.5327 13.2033 33.9247 13.502C34.3167 13.8007 34.8114 13.95 35.4087 13.95C36.1461 13.95 36.7014 13.7307 37.0747 13.292C37.4481 12.844 37.6347 12.256 37.6347 11.528C37.6347 10.8 37.4481 10.24 37.0747 9.848C36.7014 9.44667 36.1507 9.246 35.4227 9.246C34.9281 9.246 34.4941 9.36733 34.1207 9.61C33.7567 9.84333 33.4907 10.1653 33.3227 10.576H32.1187V4.864H38.2087V5.984ZM44.0122 10.114C44.0122 9.162 44.2268 8.308 44.6562 7.552C45.0855 6.78667 45.6688 6.18933 46.4062 5.76C47.1528 5.33067 47.9788 5.116 48.8842 5.116C49.9482 5.116 50.8768 5.37267 51.6702 5.886C52.4635 6.39933 53.0422 7.12733 53.4062 8.07H51.8802C51.6095 7.482 51.2175 7.02933 50.7042 6.712C50.2002 6.39467 49.5935 6.236 48.8842 6.236C48.2028 6.236 47.5915 6.39467 47.0502 6.712C46.5088 7.02933 46.0842 7.482 45.7762 8.07C45.4682 8.64867 45.3142 9.33 45.3142 10.114C45.3142 10.8887 45.4682 11.57 45.7762 12.158C46.0842 12.7367 46.5088 13.1847 47.0502 13.502C47.5915 13.8193 48.2028 13.978 48.8842 13.978C49.5935 13.978 50.2002 13.824 50.7042 13.516C51.2175 13.1987 51.6095 12.746 51.8802 12.158H53.4062C53.0422 13.0913 52.4635 13.8147 51.6702 14.328C50.8768 14.832 49.9482 15.084 48.8842 15.084C47.9788 15.084 47.1528 14.874 46.4062 14.454C45.6688 14.0247 45.0855 13.432 44.6562 12.676C44.2268 11.92 44.0122 11.066 44.0122 10.114ZM58.6486 15.126C57.9299 15.126 57.2766 14.9627 56.6886 14.636C56.1099 14.3093 55.6526 13.8473 55.3166 13.25C54.9899 12.6433 54.8266 11.9433 54.8266 11.15C54.8266 10.366 54.9946 9.67533 55.3306 9.078C55.6759 8.47133 56.1426 8.00933 56.7306 7.692C57.3186 7.36533 57.9766 7.202 58.7046 7.202C59.4326 7.202 60.0906 7.36533 60.6786 7.692C61.2666 8.00933 61.7286 8.46667 62.0646 9.064C62.4099 9.66133 62.5826 10.3567 62.5826 11.15C62.5826 11.9433 62.4053 12.6433 62.0506 13.25C61.7053 13.8473 61.2339 14.3093 60.6366 14.636C60.0393 14.9627 59.3766 15.126 58.6486 15.126ZM58.6486 14.006C59.1059 14.006 59.5353 13.8987 59.9366 13.684C60.3379 13.4693 60.6599 13.1473 60.9026 12.718C61.1546 12.2887 61.2806 11.766 61.2806 11.15C61.2806 10.534 61.1593 10.0113 60.9166 9.582C60.6739 9.15267 60.3566 8.83533 59.9646 8.63C59.5726 8.41533 59.1479 8.308 58.6906 8.308C58.2239 8.308 57.7946 8.41533 57.4026 8.63C57.0199 8.83533 56.7119 9.15267 56.4786 9.582C56.2453 10.0113 56.1286 10.534 56.1286 11.15C56.1286 11.7753 56.2406 12.3027 56.4646 12.732C56.6979 13.1613 57.0059 13.4833 57.3886 13.698C57.7713 13.9033 58.1913 14.006 58.6486 14.006ZM73.4837 7.188C74.081 7.188 74.613 7.314 75.0797 7.566C75.5464 7.80867 75.915 8.17733 76.1857 8.672C76.4564 9.16667 76.5917 9.76867 76.5917 10.478V15H75.3317V10.66C75.3317 9.89467 75.1404 9.31133 74.7577 8.91C74.3844 8.49933 73.8757 8.294 73.2317 8.294C72.569 8.294 72.0417 8.50867 71.6497 8.938C71.2577 9.358 71.0617 9.96933 71.0617 10.772V15H69.8017V10.66C69.8017 9.89467 69.6104 9.31133 69.2277 8.91C68.8544 8.49933 68.3457 8.294 67.7017 8.294C67.039 8.294 66.5117 8.50867 66.1197 8.938C65.7277 9.358 65.5317 9.96933 65.5317 10.772V15H64.2577V7.328H65.5317V8.434C65.7837 8.03267 66.1197 7.72467 66.5397 7.51C66.969 7.29533 67.4404 7.188 67.9537 7.188C68.5977 7.188 69.167 7.33267 69.6617 7.622C70.1564 7.91133 70.525 8.336 70.7677 8.896C70.9824 8.35467 71.337 7.93467 71.8317 7.636C72.3264 7.33733 72.877 7.188 73.4837 7.188ZM87.9075 7.188C88.5048 7.188 89.0368 7.314 89.5035 7.566C89.9702 7.80867 90.3388 8.17733 90.6095 8.672C90.8802 9.16667 91.0155 9.76867 91.0155 10.478V15H89.7555V10.66C89.7555 9.89467 89.5642 9.31133 89.1815 8.91C88.8082 8.49933 88.2995 8.294 87.6555 8.294C86.9928 8.294 86.4655 8.50867 86.0735 8.938C85.6815 9.358 85.4855 9.96933 85.4855 10.772V15H84.2255V10.66C84.2255 9.89467 84.0342 9.31133 83.6515 8.91C83.2782 8.49933 82.7695 8.294 82.1255 8.294C81.4628 8.294 80.9355 8.50867 80.5435 8.938C80.1515 9.358 79.9555 9.96933 79.9555 10.772V15H78.6815V7.328H79.9555V8.434C80.2075 8.03267 80.5435 7.72467 80.9635 7.51C81.3928 7.29533 81.8642 7.188 82.3775 7.188C83.0215 7.188 83.5908 7.33267 84.0855 7.622C84.5802 7.91133 84.9488 8.336 85.1915 8.896C85.4062 8.35467 85.7608 7.93467 86.2555 7.636C86.7502 7.33733 87.3008 7.188 87.9075 7.188ZM100.105 10.87C100.105 11.1127 100.091 11.3693 100.063 11.64H93.9313C93.978 12.396 94.2347 12.9887 94.7013 13.418C95.1773 13.838 95.7513 14.048 96.4233 14.048C96.974 14.048 97.4313 13.922 97.7953 13.67C98.1687 13.4087 98.43 13.0633 98.5793 12.634H99.9513C99.746 13.3713 99.3353 13.9733 98.7193 14.44C98.1033 14.8973 97.338 15.126 96.4233 15.126C95.6953 15.126 95.042 14.9627 94.4633 14.636C93.894 14.3093 93.446 13.8473 93.1193 13.25C92.7927 12.6433 92.6293 11.9433 92.6293 11.15C92.6293 10.3567 92.788 9.66133 93.1053 9.064C93.4227 8.46667 93.866 8.00933 94.4353 7.692C95.014 7.36533 95.6767 7.202 96.4233 7.202C97.1513 7.202 97.7953 7.36067 98.3553 7.678C98.9153 7.99533 99.3447 8.434 99.6433 8.994C99.9513 9.54467 100.105 10.17 100.105 10.87ZM98.7893 10.604C98.7893 10.1187 98.682 9.70333 98.4673 9.358C98.2527 9.00333 97.9587 8.73733 97.5853 8.56C97.2213 8.37333 96.8153 8.28 96.3673 8.28C95.7233 8.28 95.1727 8.48533 94.7153 8.896C94.2673 9.30667 94.0107 9.876 93.9453 10.604H98.7893ZM105.525 7.188C106.458 7.188 107.214 7.47267 107.793 8.042C108.372 8.602 108.661 9.414 108.661 10.478V15H107.401V10.66C107.401 9.89467 107.21 9.31133 106.827 8.91C106.444 8.49933 105.922 8.294 105.259 8.294C104.587 8.294 104.05 8.504 103.649 8.924C103.257 9.344 103.061 9.95533 103.061 10.758V15H101.787V7.328H103.061V8.42C103.313 8.028 103.654 7.72467 104.083 7.51C104.522 7.29533 105.002 7.188 105.525 7.188ZM112.296 8.378V12.9C112.296 13.2733 112.375 13.5393 112.534 13.698C112.693 13.8473 112.968 13.922 113.36 13.922H114.298V15H113.15C112.441 15 111.909 14.8367 111.554 14.51C111.199 14.1833 111.022 13.6467 111.022 12.9V8.378H110.028V7.328H111.022V5.396H112.296V7.328H114.298V8.378H112.296ZM118.558 15.126C117.97 15.126 117.442 15.028 116.976 14.832C116.509 14.6267 116.14 14.3467 115.87 13.992C115.599 13.628 115.45 13.2127 115.422 12.746H116.738C116.775 13.1287 116.952 13.4413 117.27 13.684C117.596 13.9267 118.021 14.048 118.544 14.048C119.029 14.048 119.412 13.9407 119.692 13.726C119.972 13.5113 120.112 13.2407 120.112 12.914C120.112 12.578 119.962 12.3307 119.664 12.172C119.365 12.004 118.903 11.8407 118.278 11.682C117.708 11.5327 117.242 11.3833 116.878 11.234C116.523 11.0753 116.215 10.8467 115.954 10.548C115.702 10.24 115.576 9.83867 115.576 9.344C115.576 8.952 115.692 8.59267 115.926 8.266C116.159 7.93933 116.49 7.68267 116.92 7.496C117.349 7.3 117.839 7.202 118.39 7.202C119.239 7.202 119.925 7.41667 120.448 7.846C120.97 8.27533 121.25 8.86333 121.288 9.61H120.014C119.986 9.20867 119.822 8.88667 119.524 8.644C119.234 8.40133 118.842 8.28 118.348 8.28C117.89 8.28 117.526 8.378 117.256 8.574C116.985 8.77 116.85 9.02667 116.85 9.344C116.85 9.596 116.929 9.806 117.088 9.974C117.256 10.1327 117.461 10.2633 117.704 10.366C117.956 10.4593 118.301 10.5667 118.74 10.688C119.29 10.8373 119.738 10.9867 120.084 11.136C120.429 11.276 120.723 11.4907 120.966 11.78C121.218 12.0693 121.348 12.4473 121.358 12.914C121.358 13.334 121.241 13.712 121.008 14.048C120.774 14.384 120.443 14.65 120.014 14.846C119.594 15.0327 119.108 15.126 118.558 15.126Z" fill="#666666"/>
</svg>
