<svg width="20" height="21" viewBox="0 0 20 21" fill="none" xmlns="http://www.w3.org/2000/svg">
<rect width="20" height="21" fill="#E6E6E6"/>
<g id="18_Single_Blog" clip-path="url(#clip0_460_39913)">
<rect width="1920" height="4080" transform="translate(-300 -975)" fill="white"/>
<g id="Blog Detail">
<g id="Frame 183">
<g id="Info">
<g id="Categories">
<g id="tag 1">
<g id="Group">
<path id="Vector" d="M17.1584 11.6753L11.1834 17.6503C11.0286 17.8053 10.8448 17.9282 10.6425 18.0121C10.4402 18.096 10.2233 18.1391 10.0042 18.1391C9.78522 18.1391 9.56834 18.096 9.36601 18.0121C9.16368 17.9282 8.97987 17.8053 8.82508 17.6503L1.66675 10.5003V2.16699H10.0001L17.1584 9.32533C17.4688 9.6376 17.6431 10.06 17.6431 10.5003C17.6431 10.9406 17.4688 11.3631 17.1584 11.6753V11.6753Z" stroke="#00B307" stroke-width="1.2" stroke-linecap="round" stroke-linejoin="round"/>
<path id="Vector_2" d="M5.8335 6.33398H5.84183" stroke="#00B307" stroke-width="1.5" stroke-linecap="round" stroke-linejoin="round"/>
</g>
</g>
</g>
</g>
</g>
</g>
</g>
<defs>
<clipPath id="clip0_460_39913">
<rect width="1920" height="4080" fill="white" transform="translate(-300 -975)"/>
</clipPath>
</defs>
</svg>
