<svg width="216" height="40" viewBox="0 0 216 40" fill="none" xmlns="http://www.w3.org/2000/svg">
<path d="M22.9976 13.9887H24.6409V11.1267C24.3574 11.0878 23.3824 11 22.2469 11C19.8776 11 18.2546 12.4902 18.2546 15.2292V17.75H15.6401V20.9495H18.2546V29H21.4601V20.9503H23.9689L24.3671 17.7508H21.4594V15.5465C21.4601 14.6217 21.7091 13.9887 22.9976 13.9887Z" fill="#4D4D4D"/>
<circle cx="64" cy="20" r="20" fill="#00B307"/>
<path d="M73 14.4189C72.3306 14.7125 71.6174 14.9071 70.8737 15.0016C71.6388 14.5449 72.2226 13.8271 72.4971 12.962C71.7839 13.3873 70.9964 13.6876 70.1571 13.8553C69.4799 13.1341 68.5146 12.6875 67.4616 12.6875C65.4186 12.6875 63.7739 14.3458 63.7739 16.3786C63.7739 16.6711 63.7986 16.9524 63.8594 17.2201C60.7915 17.0705 58.0769 15.6001 56.2533 13.3603C55.9349 13.9126 55.7481 14.5449 55.7481 15.2255C55.7481 16.5035 56.4062 17.6364 57.3872 18.2923C56.7944 18.281 56.2127 18.1089 55.72 17.8378C55.72 17.849 55.72 17.8636 55.72 17.8783C55.72 19.6715 56.9991 21.161 58.6765 21.5041C58.3761 21.5863 58.0487 21.6256 57.709 21.6256C57.4727 21.6256 57.2342 21.6121 57.0104 21.5626C57.4885 23.024 58.8453 24.0984 60.4585 24.1333C59.203 25.1154 57.6089 25.7071 55.8831 25.7071C55.5805 25.7071 55.2902 25.6936 55 25.6565C56.6346 26.7106 58.5719 27.3125 60.661 27.3125C67.4515 27.3125 71.164 21.6875 71.164 16.8118C71.164 16.6486 71.1584 16.4911 71.1505 16.3348C71.8829 15.815 72.4982 15.1659 73 14.4189Z" fill="white"/>
<path d="M108.245 11C103.311 11 100.688 14.1614 100.688 17.6085C100.688 19.2072 101.581 21.2008 103.011 21.8331C103.228 21.931 103.346 21.8894 103.395 21.688C103.437 21.535 103.625 20.7981 103.716 20.4504C103.745 20.339 103.73 20.2423 103.64 20.1377C103.165 19.5886 102.788 18.5885 102.788 17.6502C102.788 15.2459 104.7 12.9115 107.952 12.9115C110.765 12.9115 112.733 14.7385 112.733 17.352C112.733 20.3053 111.17 22.3484 109.139 22.3484C108.015 22.3484 107.178 21.4663 107.444 20.375C107.764 19.0756 108.393 17.6783 108.393 16.7411C108.393 15.9007 107.918 15.2054 106.949 15.2054C105.804 15.2054 104.876 16.3384 104.876 17.8594C104.876 18.8259 105.218 19.4784 105.218 19.4784C105.218 19.4784 104.087 24.0506 103.876 24.9045C103.521 26.3502 103.925 28.6914 103.959 28.8928C103.981 29.0042 104.106 29.0391 104.175 28.9479C104.287 28.8017 105.655 26.8497 106.038 25.4389C106.178 24.9248 106.751 22.84 106.751 22.84C107.128 23.5207 108.215 24.0911 109.374 24.0911C112.821 24.0911 115.312 21.0613 115.312 17.3014C115.3 13.6967 112.215 11 108.245 11Z" fill="#4D4D4D"/>
<g clip-path="url(#clip0_42256_11794)">
<path d="M160.982 16.292C160.94 15.3356 160.785 14.6781 160.564 14.1084C160.335 13.5036 159.984 12.9621 159.523 12.512C159.073 12.0549 158.528 11.6997 157.93 11.4747C157.357 11.2531 156.703 11.0985 155.747 11.0563C154.783 11.0106 154.477 11 152.033 11C149.589 11 149.284 11.0106 148.324 11.0527C147.367 11.0949 146.71 11.2497 146.14 11.4711C145.535 11.6997 144.994 12.0513 144.544 12.512C144.086 12.9621 143.731 13.5072 143.506 14.1049C143.285 14.6781 143.13 15.3321 143.088 16.2885C143.042 17.252 143.031 17.5579 143.031 20.0018C143.031 22.4456 143.042 22.7515 143.084 23.7115C143.126 24.6679 143.281 25.3254 143.503 25.8952C143.731 26.4999 144.086 27.0414 144.544 27.4915C144.994 27.9486 145.539 28.3038 146.136 28.5288C146.71 28.7504 147.364 28.905 148.32 28.9472C149.28 28.9895 149.586 28.9999 152.03 28.9999C154.474 28.9999 154.78 28.9895 155.74 28.9472C156.696 28.905 157.353 28.7504 157.923 28.5288C159.133 28.0611 160.089 27.1047 160.557 25.8952C160.778 25.322 160.933 24.6679 160.975 23.7115C161.017 22.7515 161.028 22.4456 161.028 20.0018C161.028 17.5579 161.024 17.252 160.982 16.292ZM159.361 23.6411C159.323 24.5202 159.175 24.9949 159.052 25.3114C158.749 26.0956 158.127 26.7179 157.343 27.0204C157.026 27.1434 156.548 27.2911 155.673 27.3297C154.723 27.372 154.438 27.3824 152.037 27.3824C149.635 27.3824 149.347 27.372 148.401 27.3297C147.522 27.2911 147.047 27.1434 146.731 27.0204C146.34 26.8761 145.985 26.6476 145.697 26.3487C145.398 26.0568 145.169 25.7052 145.025 25.315C144.902 24.9985 144.754 24.5202 144.716 23.6447C144.674 22.6953 144.663 22.4104 144.663 20.0088C144.663 17.6071 144.674 17.3188 144.716 16.373C144.754 15.4939 144.902 15.0192 145.025 14.7027C145.169 14.3123 145.398 13.9573 145.7 13.6688C145.992 13.3699 146.344 13.1414 146.734 12.9973C147.051 12.8742 147.529 12.7266 148.404 12.6878C149.354 12.6457 149.639 12.6351 152.04 12.6351C154.445 12.6351 154.73 12.6457 155.676 12.6878C156.555 12.7266 157.03 12.8742 157.346 12.9973C157.737 13.1414 158.092 13.3699 158.38 13.6688C158.679 13.9607 158.908 14.3123 159.052 14.7027C159.175 15.0192 159.323 15.4973 159.361 16.373C159.403 17.3224 159.414 17.6071 159.414 20.0088C159.414 22.4104 159.403 22.6917 159.361 23.6411Z" fill="#4D4D4D"/>
<path d="M152.033 15.3779C149.481 15.3779 147.409 17.449 147.409 20.0019C147.409 22.5548 149.481 24.6258 152.033 24.6258C154.586 24.6258 156.657 22.5548 156.657 20.0019C156.657 17.449 154.586 15.3779 152.033 15.3779ZM152.033 23.0013C150.377 23.0013 149.034 21.6581 149.034 20.0019C149.034 18.3456 150.377 17.0024 152.033 17.0024C153.69 17.0024 155.033 18.3456 155.033 20.0019C155.033 21.6581 153.69 23.0013 152.033 23.0013Z" fill="#4D4D4D"/>
<path d="M157.92 15.1947C157.92 15.7908 157.436 16.2742 156.84 16.2742C156.244 16.2742 155.761 15.7908 155.761 15.1947C155.761 14.5985 156.244 14.1152 156.84 14.1152C157.436 14.1152 157.92 14.5985 157.92 15.1947Z" fill="#4D4D4D"/>
</g>
<path d="M191.833 17.1667C190.949 17.1667 190.101 17.5179 189.476 18.143C188.851 18.7681 188.5 19.6159 188.5 20.5C188.5 21.3841 188.851 22.2319 189.476 22.857C190.101 23.4821 190.949 23.8333 191.833 23.8333H193.5C193.721 23.8333 193.933 23.9211 194.089 24.0774C194.245 24.2337 194.333 24.4457 194.333 24.6667C194.333 24.8877 194.245 25.0996 194.089 25.2559C193.933 25.4122 193.721 25.5 193.5 25.5H191.833C190.507 25.5 189.235 24.9732 188.298 24.0355C187.36 23.0979 186.833 21.8261 186.833 20.5C186.833 19.1739 187.36 17.9021 188.298 16.9645C189.235 16.0268 190.507 15.5 191.833 15.5H193.5C193.721 15.5 193.933 15.5878 194.089 15.7441C194.245 15.9004 194.333 16.1123 194.333 16.3333C194.333 16.5543 194.245 16.7663 194.089 16.9226C193.933 17.0789 193.721 17.1667 193.5 17.1667H191.833ZM197.667 16.3333C197.667 16.1123 197.754 15.9004 197.911 15.7441C198.067 15.5878 198.279 15.5 198.5 15.5H200.167C201.493 15.5 202.764 16.0268 203.702 16.9645C204.64 17.9021 205.167 19.1739 205.167 20.5C205.167 21.8261 204.64 23.0979 203.702 24.0355C202.764 24.9732 201.493 25.5 200.167 25.5H198.5C198.279 25.5 198.067 25.4122 197.911 25.2559C197.754 25.0996 197.667 24.8877 197.667 24.6667C197.667 24.4457 197.754 24.2337 197.911 24.0774C198.067 23.9211 198.279 23.8333 198.5 23.8333H200.167C201.051 23.8333 201.898 23.4821 202.524 22.857C203.149 22.2319 203.5 21.3841 203.5 20.5C203.5 19.6159 203.149 18.7681 202.524 18.143C201.898 17.5179 201.051 17.1667 200.167 17.1667H198.5C198.279 17.1667 198.067 17.0789 197.911 16.9226C197.754 16.7663 197.667 16.5543 197.667 16.3333ZM191.833 20.5C191.833 20.279 191.921 20.067 192.077 19.9107C192.234 19.7545 192.446 19.6667 192.667 19.6667H199.333C199.554 19.6667 199.766 19.7545 199.923 19.9107C200.079 20.067 200.167 20.279 200.167 20.5C200.167 20.721 200.079 20.933 199.923 21.0893C199.766 21.2455 199.554 21.3333 199.333 21.3333H192.667C192.446 21.3333 192.234 21.2455 192.077 21.0893C191.921 20.933 191.833 20.721 191.833 20.5Z" fill="#4D4D4D"/>
<defs>
<clipPath id="clip0_42256_11794">
<rect width="18" height="18" fill="white" transform="translate(143 11)"/>
</clipPath>
</defs>
</svg>
