<svg width="105" height="21" viewBox="0 0 105 21" fill="none" xmlns="http://www.w3.org/2000/svg">
<path d="M14.25 4.5H3.75C2.92157 4.5 2.25 5.17157 2.25 6V16.5C2.25 17.3284 2.92157 18 3.75 18H14.25C15.0784 18 15.75 17.3284 15.75 16.5V6C15.75 5.17157 15.0784 4.5 14.25 4.5Z" stroke="#00B307" stroke-linecap="round" stroke-linejoin="round"/>
<path d="M12 3V6" stroke="#00B307" stroke-linecap="round" stroke-linejoin="round"/>
<path d="M6 3V6" stroke="#00B307" stroke-linecap="round" stroke-linejoin="round"/>
<path d="M2.25 9H15.75" stroke="#00B307" stroke-linecap="round" stroke-linejoin="round"/>
<path d="M30.846 12.83H26.59L25.806 15H24.462L27.99 5.298H29.46L32.974 15H31.63L30.846 12.83ZM30.482 11.794L28.718 6.866L26.954 11.794H30.482ZM35.7856 8.742C36.0376 8.30333 36.4109 7.93933 36.9056 7.65C37.4096 7.35133 37.9929 7.202 38.6556 7.202C39.3369 7.202 39.9529 7.36533 40.5036 7.692C41.0636 8.01867 41.5023 8.48067 41.8196 9.078C42.1369 9.666 42.2956 10.352 42.2956 11.136C42.2956 11.9107 42.1369 12.6013 41.8196 13.208C41.5023 13.8147 41.0636 14.286 40.5036 14.622C39.9529 14.958 39.3369 15.126 38.6556 15.126C38.0023 15.126 37.4236 14.9813 36.9196 14.692C36.4249 14.3933 36.0469 14.0247 35.7856 13.586V18.64H34.5116V7.328H35.7856V8.742ZM40.9936 11.136C40.9936 10.5573 40.8769 10.0533 40.6436 9.624C40.4103 9.19467 40.0929 8.868 39.6916 8.644C39.2996 8.42 38.8656 8.308 38.3896 8.308C37.9229 8.308 37.4889 8.42467 37.0876 8.658C36.6956 8.882 36.3783 9.21333 36.1356 9.652C35.9023 10.0813 35.7856 10.5807 35.7856 11.15C35.7856 11.7287 35.9023 12.2373 36.1356 12.676C36.3783 13.1053 36.6956 13.4367 37.0876 13.67C37.4889 13.894 37.9229 14.006 38.3896 14.006C38.8656 14.006 39.2996 13.894 39.6916 13.67C40.0929 13.4367 40.4103 13.1053 40.6436 12.676C40.8769 12.2373 40.9936 11.724 40.9936 11.136ZM45.2465 8.574C45.4705 8.13533 45.7879 7.79467 46.1985 7.552C46.6185 7.30933 47.1272 7.188 47.7245 7.188V8.504H47.3885C45.9605 8.504 45.2465 9.27867 45.2465 10.828V15H43.9725V7.328H45.2465V8.574ZM52.5636 13.978C53.7489 13.026 54.6776 12.2467 55.3496 11.64C56.0216 11.024 56.5863 10.3847 57.0436 9.722C57.5103 9.05 57.7436 8.392 57.7436 7.748C57.7436 7.14133 57.5943 6.66533 57.2956 6.32C57.0063 5.96533 56.5349 5.788 55.8816 5.788C55.2469 5.788 54.7523 5.98867 54.3976 6.39C54.0523 6.782 53.8656 7.30933 53.8376 7.972H52.6056C52.6429 6.92667 52.9603 6.11933 53.5576 5.55C54.1549 4.98067 54.9249 4.696 55.8676 4.696C56.8289 4.696 57.5896 4.962 58.1496 5.494C58.7189 6.026 59.0036 6.75867 59.0036 7.692C59.0036 8.46667 58.7703 9.22267 58.3036 9.96C57.8463 10.688 57.3236 11.332 56.7356 11.892C56.1476 12.4427 55.3963 13.0867 54.4816 13.824H59.2976V14.888H52.5636V13.978ZM67.2243 5.984H62.3103V9.176C62.525 8.87733 62.8423 8.63467 63.2623 8.448C63.6823 8.252 64.135 8.154 64.6203 8.154C65.395 8.154 66.025 8.31733 66.5103 8.644C66.9957 8.96133 67.341 9.37667 67.5463 9.89C67.761 10.394 67.8683 10.9307 67.8683 11.5C67.8683 12.172 67.7423 12.774 67.4903 13.306C67.2383 13.838 66.851 14.258 66.3283 14.566C65.815 14.874 65.1757 15.028 64.4103 15.028C63.4303 15.028 62.637 14.776 62.0303 14.272C61.4237 13.768 61.055 13.096 60.9243 12.256H62.1703C62.2917 12.788 62.5483 13.2033 62.9403 13.502C63.3323 13.8007 63.827 13.95 64.4243 13.95C65.1617 13.95 65.717 13.7307 66.0903 13.292C66.4637 12.844 66.6503 12.256 66.6503 11.528C66.6503 10.8 66.4637 10.24 66.0903 9.848C65.717 9.44667 65.1663 9.246 64.4383 9.246C63.9437 9.246 63.5097 9.36733 63.1363 9.61C62.7723 9.84333 62.5063 10.1653 62.3383 10.576H61.1343V4.864H67.2243V5.984ZM71.0874 13.236L69.5194 17.002H68.6654L69.6874 13.236H71.0874ZM75.9152 13.978C77.1005 13.026 78.0292 12.2467 78.7012 11.64C79.3732 11.024 79.9378 10.3847 80.3952 9.722C80.8618 9.05 81.0952 8.392 81.0952 7.748C81.0952 7.14133 80.9458 6.66533 80.6472 6.32C80.3578 5.96533 79.8865 5.788 79.2332 5.788C78.5985 5.788 78.1038 5.98867 77.7492 6.39C77.4038 6.782 77.2172 7.30933 77.1892 7.972H75.9572C75.9945 6.92667 76.3118 6.11933 76.9092 5.55C77.5065 4.98067 78.2765 4.696 79.2192 4.696C80.1805 4.696 80.9412 4.962 81.5012 5.494C82.0705 6.026 82.3552 6.75867 82.3552 7.692C82.3552 8.46667 82.1218 9.22267 81.6552 9.96C81.1978 10.688 80.6752 11.332 80.0872 11.892C79.4992 12.4427 78.7478 13.0867 77.8332 13.824H82.6492V14.888H75.9152V13.978ZM84.1219 9.834C84.1219 8.22867 84.3832 6.978 84.9059 6.082C85.4286 5.17667 86.3432 4.724 87.6499 4.724C88.9472 4.724 89.8572 5.17667 90.3799 6.082C90.9026 6.978 91.1639 8.22867 91.1639 9.834C91.1639 11.4673 90.9026 12.7367 90.3799 13.642C89.8572 14.5473 88.9472 15 87.6499 15C86.3432 15 85.4286 14.5473 84.9059 13.642C84.3832 12.7367 84.1219 11.4673 84.1219 9.834ZM89.9039 9.834C89.9039 9.022 89.8479 8.336 89.7359 7.776C89.6332 7.20667 89.4139 6.74933 89.0779 6.404C88.7512 6.05867 88.2752 5.886 87.6499 5.886C87.0152 5.886 86.5299 6.05867 86.1939 6.404C85.8672 6.74933 85.6479 7.20667 85.5359 7.776C85.4332 8.336 85.3819 9.022 85.3819 9.834C85.3819 10.674 85.4332 11.3787 85.5359 11.948C85.6479 12.5173 85.8672 12.9747 86.1939 13.32C86.5299 13.6653 87.0152 13.838 87.6499 13.838C88.2752 13.838 88.7512 13.6653 89.0779 13.32C89.4139 12.9747 89.6332 12.5173 89.7359 11.948C89.8479 11.3787 89.9039 10.674 89.9039 9.834ZM92.7589 13.978C93.9443 13.026 94.8729 12.2467 95.5449 11.64C96.2169 11.024 96.7816 10.3847 97.2389 9.722C97.7056 9.05 97.9389 8.392 97.9389 7.748C97.9389 7.14133 97.7896 6.66533 97.4909 6.32C97.2016 5.96533 96.7303 5.788 96.0769 5.788C95.4423 5.788 94.9476 5.98867 94.5929 6.39C94.2476 6.782 94.0609 7.30933 94.0329 7.972H92.8009C92.8383 6.92667 93.1556 6.11933 93.7529 5.55C94.3503 4.98067 95.1203 4.696 96.0629 4.696C97.0243 4.696 97.7849 4.962 98.3449 5.494C98.9143 6.026 99.1989 6.75867 99.1989 7.692C99.1989 8.46667 98.9656 9.22267 98.4989 9.96C98.0416 10.688 97.5189 11.332 96.9309 11.892C96.3429 12.4427 95.5916 13.0867 94.6769 13.824H99.4929V14.888H92.7589V13.978ZM100.63 6.04V4.878H103.262V15H101.974V6.04H100.63Z" fill="#666666"/>
</svg>
