<svg display="none" xmlns="http://www.w3.org/2000/svg">
   <symbol viewBox="0 0 72 72" width="72" height="72" id="icon-02">
      <path d="M65.6714 37.7439C65.4546 36.614 64.4663 35.7969 63.3158 35.7963H60.9986L60.8282 34.7751C60.6582 33.7494 59.8501 32.948 58.823 32.7867C58.595 32.7507 58.3646 32.7267 58.1378 32.6955C58.5308 30.8609 58.2043 28.9455 57.2258 27.3447C57.7428 26.0036 57.6463 24.5034 56.9618 23.2397C56.2773 21.9759 55.0735 21.0755 53.6678 20.7759C52.7691 15.9662 48.585 12.4701 43.6922 12.4406C43.5722 12.4406 43.4654 12.4563 43.3514 12.4599C42.5696 11.2321 41.2807 10.4172 39.8363 10.2376C38.3918 10.0579 36.9426 10.5322 35.8838 11.5311C34.5501 10.6641 32.9938 10.2019 31.403 10.2003C28.8399 10.2107 26.4242 11.4004 24.8534 13.4259C23.1093 12.9172 21.2285 13.2295 19.7422 14.2745C18.256 15.3195 17.3258 16.9837 17.2142 18.7971C15.3822 19.5671 14.1902 21.3602 14.189 23.3475C14.1928 23.6919 14.233 24.035 14.309 24.3711C12.6889 26.8134 12.2655 29.8594 13.1582 32.6511C12.8366 32.6954 12.5078 32.7351 12.1982 32.7807C11.1658 32.9364 10.3505 33.7382 10.1774 34.7679L10.007 35.7927H7.68382C6.53524 35.7934 5.54822 36.6079 5.32942 37.7355L0.0746196 64.7139C-0.130598 65.7704 0.147688 66.8634 0.833196 67.6931C1.5187 68.5229 2.53952 69.0024 3.61582 69.0003H28.6406C29.6342 70.6395 32.6534 71.4003 35.4998 71.4003C38.3162 71.4003 41.3066 70.6575 42.329 69.0003H67.3838C68.4599 69.0023 69.4804 68.523 70.1659 67.6935C70.8514 66.864 71.1298 65.7714 70.925 64.7151L65.6714 37.7439ZM17.8178 25.5195C16.8435 24.9336 16.3785 23.7707 16.6803 22.6746C16.9822 21.5785 17.9769 20.8175 19.1138 20.8131C19.9095 20.8107 20.6583 21.1889 21.1286 21.8307C21.3841 22.1749 21.8039 22.3567 22.2298 22.3076C22.6557 22.2584 23.023 21.9858 23.1934 21.5924C23.3638 21.1989 23.3113 20.7445 23.0558 20.4003C22.241 19.3112 21.0061 18.6145 19.6526 18.4803C20.0104 16.7997 21.4924 15.5966 23.2106 15.5919C23.357 15.5993 23.5029 15.6153 23.6474 15.6399C23.5509 15.8859 23.4668 16.1366 23.3954 16.3911C23.2461 17.0263 23.6317 17.6644 24.2635 17.8276C24.8953 17.9908 25.5417 17.6191 25.7186 16.9911C25.8551 16.4636 26.0647 15.9579 26.3414 15.4886C27.4059 13.7054 29.3262 12.6095 31.403 12.6003C32.5333 12.6053 33.6377 12.9388 34.5818 13.5603C34.402 14.0656 34.3067 14.5971 34.2998 15.1335C34.2998 15.7962 34.8371 16.3335 35.4998 16.3335C36.1626 16.3335 36.6998 15.7962 36.6998 15.1335C36.6998 13.7394 37.8299 12.6093 39.224 12.6093C40.6181 12.6093 41.7482 13.7394 41.7482 15.1335C41.7482 15.7962 42.2855 16.3335 42.9482 16.3335C43.611 16.3335 44.1482 15.7962 44.1482 15.1335C44.1482 15.0411 44.1254 14.9535 44.1206 14.8611C47.5566 15.0731 50.446 17.5155 51.227 20.8682C50.6673 21.0312 50.1413 21.2934 49.6742 21.6423C49.3312 21.8995 49.1516 22.3201 49.2028 22.7458C49.2541 23.1714 49.5286 23.5374 49.9228 23.7058C50.3171 23.8742 50.7712 23.8195 51.1142 23.5623C52.0732 22.8523 53.3978 22.9089 54.2926 23.6981C55.1875 24.4873 55.4092 25.7945 54.8246 26.8347C54.5634 27.2939 54.1664 27.6611 53.6882 27.8859C53.1867 28.1287 52.9183 28.6847 53.0402 29.2284C53.1621 29.7721 53.6423 30.1604 54.1994 30.1659C54.3754 30.1661 54.5492 30.1272 54.7082 30.0518C55.0262 29.8977 55.3268 29.7099 55.6046 29.4915C56.2249 31.2549 55.8359 33.2163 54.5894 34.6095L54.5606 34.6395C52.9973 36.333 50.5034 36.7907 48.4406 35.7627C48.2386 35.6559 48.0445 35.5348 47.8598 35.4003C48.7437 34.1611 48.8658 32.5334 48.1766 31.1763C47.9837 30.7932 47.6011 30.5422 47.1729 30.5177C46.7447 30.4932 46.3359 30.6991 46.1007 31.0577C45.8654 31.4163 45.8393 31.8732 46.0322 32.2563C46.4268 33.0494 46.1807 34.0119 45.4538 34.5183C45.027 34.8024 44.4996 34.8923 44.0028 34.7656C43.5059 34.6388 43.086 34.3074 42.8474 33.8535C42.6556 33.47 42.2737 33.218 41.8457 33.1924C41.4176 33.1668 41.0084 33.3715 40.7723 33.7294C40.5361 34.0873 40.5088 34.544 40.7006 34.9275C41.4044 36.3481 42.8544 37.2453 44.4398 37.2411C44.956 37.2376 45.4668 37.137 45.9458 36.9447C46.3744 37.3199 46.8466 37.6422 47.3522 37.9047C49.0625 38.7912 51.0512 38.975 52.895 38.4171C51.7091 40.0363 49.9344 41.1245 47.9534 41.4471C47.3371 41.5474 46.9008 42.1035 46.95 42.726C46.9991 43.3484 47.5174 43.8292 48.1418 43.8315C48.2057 43.8314 48.2695 43.8266 48.3326 43.8171C49.0633 43.6906 49.7774 43.482 50.4614 43.1954C50.8311 43.849 51.1311 44.5396 51.3566 45.2559C51.3979 45.3809 51.419 45.5118 51.419 45.6435C51.4187 46.1621 51.109 46.6305 50.6318 46.8339C50.0798 47.0473 49.4532 46.8789 49.0826 46.4174C48.1533 45.3261 46.9363 44.5175 45.5702 44.0835C42.977 43.2147 41.9762 42.4383 41.5514 41.5935C42.1741 41.5158 42.7893 41.3873 43.391 41.2095C43.8009 41.0834 44.1124 40.7483 44.2081 40.3303C44.3039 39.9123 44.1694 39.475 43.8553 39.1831C43.5412 38.8912 43.0953 38.789 42.6854 38.9151C42.0121 39.1216 41.317 39.2493 40.6142 39.2955C39.2602 39.4013 37.8999 39.196 36.6374 38.6955C36.1634 38.5106 35.6243 38.6448 35.2922 39.0303C33.5451 41.0372 30.5548 41.3783 28.4005 39.8164C26.2463 38.2545 25.6408 35.3064 27.005 33.0219C27.226 32.6529 27.2334 32.1941 27.0244 31.8183C26.8155 31.4424 26.4218 31.2066 25.9918 31.1997C25.5619 31.1928 25.1608 31.4157 24.9398 31.7847C24.6535 32.2719 24.4233 32.79 24.2534 33.3291C23.3084 33.2793 22.5633 32.5064 22.5482 31.5602V31.5303C22.5476 31.2136 22.4205 30.9103 22.1951 30.6879C21.9697 30.4655 21.6648 30.3423 21.3482 30.3459C20.6826 30.3524 20.1469 30.8946 20.1482 31.5602C20.1536 33.6884 21.7584 35.4721 23.8742 35.7015C23.8785 36.1037 23.915 36.505 23.9834 36.9015C21.3041 37.4812 18.5251 36.5181 16.7791 34.4047C15.0331 32.2913 14.6117 29.3805 15.6866 26.8587C15.9551 27.1303 16.2548 27.3691 16.5794 27.5703C17.1463 27.9023 17.8748 27.7168 18.2138 27.1541C18.5529 26.5913 18.3763 25.8606 17.8178 25.5146V25.5195ZM12.5378 35.1591C13.091 35.0775 13.6622 35.0055 14.2298 34.9311C16.4485 38.4766 20.692 40.1982 24.7538 39.2007C25.8452 41.2721 27.8395 42.7166 30.1479 43.1078C32.4563 43.4991 34.8152 42.7923 36.5282 41.1963C37.3437 41.4395 38.1836 41.5916 39.0326 41.6499C39.6122 43.8483 41.2874 45.1803 44.807 46.3599C45.7558 46.6573 46.6023 47.2148 47.2502 47.9691C47.9706 48.8257 49.0302 49.3235 50.1494 49.3311C50.6389 49.3309 51.1233 49.2321 51.5738 49.0407C52.9341 48.4593 53.8165 47.1227 53.8166 45.6435C53.8177 45.2577 53.7561 44.8743 53.6342 44.5083C53.3644 43.6604 53.0089 42.8422 52.5734 42.0663C54.614 40.5993 56.0355 38.4254 56.561 35.9679C56.8166 35.6642 57.0477 35.3408 57.2522 35.0007C57.6542 35.0523 58.0562 35.0979 58.4606 35.1651L62.7926 61.2219C54.3248 58.3943 45.1676 58.3943 36.6998 61.2219V46.2003C36.6998 45.5375 36.1626 45.0003 35.4998 45.0003C34.8371 45.0003 34.2998 45.5375 34.2998 46.2003V61.2267C25.833 58.3965 16.6759 58.3931 8.20702 61.2171L12.5378 35.1591ZM2.68102 66.1587C2.45427 65.8848 2.36184 65.5238 2.42902 65.1747L7.68382 38.1963H9.60382L5.83822 60.8271C5.70577 61.6508 6.00908 62.4844 6.6399 63.0304C7.27072 63.5764 8.1392 63.757 8.93542 63.5079C15.3326 61.4353 22.148 61.0028 28.7558 62.2503L28.3982 66.6003H3.61582C3.2538 66.6005 2.91074 66.4384 2.68102 66.1587ZM35.4998 69.0003C32.609 69.0003 30.9506 68.1459 30.707 67.7655L31.1198 62.7854C32.4393 63.114 33.7306 63.547 34.9814 64.0803C35.1432 64.1582 35.3203 64.1992 35.4998 64.2003C35.6799 64.2 35.8575 64.159 36.0194 64.0803C37.2695 63.5438 38.5604 63.108 39.8798 62.7771L40.2926 67.7643C40.049 68.1459 38.3906 69.0003 35.4998 69.0003ZM68.3186 66.1587C68.0889 66.4384 67.7458 66.6005 67.3838 66.6003H42.605L42.245 62.2419C48.8565 60.997 55.6748 61.4332 62.0738 63.5103C62.8699 63.7562 63.7365 63.573 64.3649 63.0259C64.9933 62.4789 65.2941 61.6458 65.1602 60.8235L61.3982 38.1975H63.3182L68.5742 65.1735C68.6408 65.5236 68.547 65.8851 68.3186 66.1587Z" />
      <path d="M31.5228 27.822C31.0316 28.2664 30.9935 29.0249 31.4376 29.5164C32.4556 30.6403 33.8009 31.416 35.2836 31.734C34.6121 32.6802 33.5231 33.2417 32.3628 33.24C31.7001 33.24 31.1628 33.7772 31.1628 34.44C31.1628 35.1027 31.7001 35.64 32.3628 35.64C34.847 35.6499 37.076 34.1156 37.9536 31.7916C40.9375 31.2971 43.2998 29.0003 43.878 26.0316C43.9674 25.6069 43.8205 25.1671 43.4939 24.8814C43.1674 24.5957 42.712 24.5085 42.303 24.6534C41.894 24.7983 41.595 25.1528 41.5212 25.5804C41.2859 26.818 40.5718 27.9129 39.534 28.6272C37.5375 29.9718 34.8599 29.6666 33.2172 27.9072C32.7728 27.4159 32.0143 27.3778 31.5228 27.822Z" />
      <path d="M27.3396 26.5203C28.0024 26.5203 28.5396 25.983 28.5396 25.3203C28.5396 24.4928 28.8684 23.6992 29.4535 23.1141C30.0386 22.529 30.8322 22.2003 31.6596 22.2003C32.3224 22.2003 32.8596 21.663 32.8596 21.0003C32.8596 20.3376 32.3224 19.8003 31.6596 19.8003C28.6124 19.8036 26.143 22.2731 26.1396 25.3203C26.1396 25.6386 26.2661 25.9438 26.4911 26.1688C26.7162 26.3939 27.0214 26.5203 27.3396 26.5203Z" />
      <path d="M36.6998 3.0001V1.8001C36.6998 1.13736 36.1625 0.600098 35.4998 0.600098C34.8371 0.600098 34.2998 1.13736 34.2998 1.8001V3.0001C34.2998 3.66284 34.8371 4.2001 35.4998 4.2001C36.1625 4.2001 36.6998 3.66284 36.6998 3.0001Z" />
      <path d="M55.1919 9.2111L53.9919 10.4111C53.6799 10.7124 53.5548 11.1586 53.6646 11.5781C53.7744 11.9977 54.1021 12.3253 54.5217 12.4351C54.9412 12.545 55.3874 12.4198 55.6887 12.1079L56.8887 10.9079C57.2006 10.6066 57.3257 10.1604 57.2159 9.74089C57.1061 9.32134 56.7784 8.99368 56.3589 8.88387C55.9393 8.77405 55.4932 8.89915 55.1919 9.2111Z" />
      <path d="M16.1594 12.4595C16.6447 12.4594 17.0821 12.167 17.2678 11.7187C17.4535 11.2703 17.3509 10.7543 17.0078 10.4111L15.8078 9.2111C15.5065 8.89915 15.0604 8.77405 14.6408 8.88387C14.2212 8.99368 13.8936 9.32134 13.7838 9.74089C13.6739 10.1604 13.7991 10.6066 14.111 10.9079L15.311 12.1079C15.536 12.333 15.8412 12.4594 16.1594 12.4595Z" />
      <path d="M25.3971 7.41032C25.5548 7.40998 25.7109 7.37901 25.8567 7.31912C26.1509 7.19729 26.3845 6.96357 26.5063 6.66942C26.628 6.37527 26.6279 6.04479 26.5059 5.75072L25.1271 2.42432C24.9692 2.01917 24.6044 1.73117 24.1737 1.67152C23.743 1.61187 23.3137 1.78992 23.0516 2.1369C22.7895 2.48388 22.7356 2.94551 22.9107 3.34352L24.2883 6.66992C24.4742 7.11823 24.9118 7.41044 25.3971 7.41032Z" />
      <path d="M47.4399 1.77505C46.8278 1.52185 46.1264 1.81242 45.8727 2.42425L44.4938 5.75065C44.3715 6.04485 44.3712 6.37563 44.493 6.67007C44.6147 6.96451 44.8486 7.19842 45.143 7.32025C45.2889 7.38014 45.445 7.41111 45.6026 7.41145C46.088 7.41157 46.5256 7.11936 46.7114 6.67105L48.0891 3.34465C48.2114 3.05044 48.2117 2.71966 48.0899 2.42523C47.9682 2.13079 47.7343 1.89687 47.4399 1.77505Z" />
      <path d="M59.8898 21.6988C60.0476 21.6985 60.2038 21.6671 60.3494 21.6064L63.6746 20.2288C64.0708 20.0648 64.3493 19.7019 64.4054 19.2769C64.4614 18.8518 64.2864 18.4291 63.9464 18.1681C63.6063 17.907 63.1528 17.8472 62.7566 18.0112L59.4302 19.3888C58.8994 19.6068 58.5972 20.1701 58.7092 20.7329C58.8212 21.2958 59.316 21.7005 59.8898 21.6988Z" />
      <path d="M10.6503 21.6062C11.2627 21.86 11.9649 21.5694 12.2187 20.957C12.4725 20.3446 12.1819 19.6424 11.5695 19.3886L8.2431 18.011C7.63073 17.7575 6.9288 18.0484 6.6753 18.6608C6.4218 19.2732 6.71273 19.9751 7.3251 20.2286L10.6503 21.6062Z" />
   </symbol>
   <symbol viewBox="0 0 72 72" width="72" height="72" id="icon-01">
      <path d="M70.8 28.8H50.4V25.2C50.4 24.816 50.2163 24.4551 49.9056 24.2292L37.2 14.9892V10.8H50.4C51.0627 10.8 51.6 10.2627 51.6 9.6V2.4C51.6 1.7373 51.0627 1.2 50.4 1.2H37.2C37.2 0.5373 36.6627 0 36 0C35.3373 0 34.8 0.5373 34.8 1.2V14.9892L22.0944 24.2292C21.7838 24.4551 21.6 24.816 21.6 25.2V28.8H1.2C0.5373 28.8 0 29.3373 0 30V70.8C0 71.4627 0.5373 72 1.2 72H70.8C71.4627 72 72 71.4627 72 70.8V30C72 29.3373 71.4627 28.8 70.8 28.8ZM37.2 3.6H49.2V8.4H37.2V3.6ZM21.6 69.6H2.4V31.2H21.6V69.6ZM40.8 69.6H31.2V57.6H40.8V69.6ZM48 69.6H43.2V56.4C43.2 55.7373 42.6627 55.2 42 55.2H30C29.3373 55.2 28.8 55.7373 28.8 56.4V69.6H24V25.8108L36 17.0832L48 25.8108V69.6ZM69.6 69.6H50.4V31.2H69.6V69.6Z" />
      <path d="M10.8 34.7998H6V37.1998H10.8V34.7998Z" />
      <path d="M18 34.7998H13.2V37.1998H18V34.7998Z" />
      <path d="M10.8 39.6001H6V42.0001H10.8V39.6001Z" />
      <path d="M18 39.6001H13.2V42.0001H18V39.6001Z" />
      <path d="M10.8 44.3999H6V46.7999H10.8V44.3999Z" />
      <path d="M18 44.3999H13.2V46.7999H18V44.3999Z" />
      <path d="M10.8 49.2002H6V51.6002H10.8V49.2002Z" />
      <path d="M18 49.2002H13.2V51.6002H18V49.2002Z" />
      <path d="M10.8 54H6V56.4H10.8V54Z" />
      <path d="M18 54H13.2V56.4H18V54Z" />
      <path d="M58.8 34.7998H54V37.1998H58.8V34.7998Z" />
      <path d="M66 34.7998H61.2V37.1998H66V34.7998Z" />
      <path d="M58.8 39.6001H54V42.0001H58.8V39.6001Z" />
      <path d="M66 39.6001H61.2V42.0001H66V39.6001Z" />
      <path d="M58.8 44.3999H54V46.7999H58.8V44.3999Z" />
      <path d="M66 44.3999H61.2V46.7999H66V44.3999Z" />
      <path d="M58.8 49.2002H54V51.6002H58.8V49.2002Z" />
      <path d="M66 49.2002H61.2V51.6002H66V49.2002Z" />
      <path d="M58.8 54H54V56.4H58.8V54Z" />
      <path d="M66 54H61.2V56.4H66V54Z" />
      <path d="M27.6001 36.0001C27.6053 40.637 31.3631 44.3948 36.0001 44.4001C40.6393 44.4001 44.4001 40.6393 44.4001 36.0001C44.4001 31.3609 40.6393 27.6001 36.0001 27.6001C31.3609 27.6001 27.6001 31.3609 27.6001 36.0001ZM42.0001 36.0001C42.0001 39.3137 39.3137 42.0001 36.0001 42.0001C32.6864 42.0001 30.0001 39.3137 30.0001 36.0001C30.004 32.6881 32.6881 30.004 36.0001 30.0001C39.3137 30.0001 42.0001 32.6864 42.0001 36.0001Z" />
   </symbol>
   <symbol viewBox="0 0 72 72" width="72" height="72" id="icon-03">
      <path d="M71.9714 57.9212V51.5857H65.2136V47.362H62.9609V43.8423H65.2136V37.5068H48.3692V39.6187H63.1017V41.7305H19.4069V43.8423H60.849V47.362H14.8816C13.9111 47.362 13.1217 46.5726 13.1217 45.6022C13.1217 44.6317 13.9111 43.8423 14.8816 43.8423H17.2951V41.7305H14.8816C12.7468 41.7305 11.0099 43.4673 11.0099 45.6022C11.0099 47.7371 12.7468 49.4739 14.8816 49.4739H63.1016V51.5857H26.7078V53.6975H69.8594V55.8093H10.2356C6.9362 55.8093 4.25207 58.4935 4.25207 61.7928C4.25207 65.0922 6.9362 67.7763 10.2356 67.7763H59.974V65.6645H10.2357C8.1008 65.6645 6.36404 63.9278 6.36404 61.7928C6.36404 59.6579 8.1008 57.9212 10.2357 57.9212H67.607V61.4409H20.7948V63.5527H67.607V65.6645H62.0859V67.7763H69.8596V69.8882H10.2357C5.77188 69.8882 2.14039 66.2567 2.14039 61.7928C2.14039 57.329 5.77188 53.6975 10.2357 53.6975H24.5961V51.5857H14.8817C11.5824 51.5857 8.89823 48.9015 8.89823 45.6022C8.89823 42.3028 11.5824 39.6187 14.8817 39.6187H46.2574V37.5068H14.8817C10.4179 37.5068 6.7864 41.1383 6.7864 45.6022C6.7864 47.9874 7.82387 50.1344 9.47067 51.6174C4.19871 52.0103 0.0285645 56.4222 0.0285645 61.7928C0.0285645 67.4211 4.60742 72 10.2357 72H71.9714V65.6645H69.7188V57.9212H71.9714Z" />
      <path d="M16.5713 61.4409H18.6831V63.5527H16.5713V61.4409Z" />
      <path d="M19.4572 31.3844L19.9274 31.6979C20.1107 31.8201 24.5487 34.6911 35.9998 34.6911C47.451 34.6911 51.8889 31.8201 52.0722 31.6979L52.5425 31.3844V13.6065L58.8779 11.4947V21.4637C57.2549 21.9247 56.0622 23.4192 56.0622 25.1879V30.4674H63.8055V25.1879C63.8055 23.4192 62.6128 21.9247 60.9898 21.4637V10.7907L64.6808 9.56037L53.5915 5.86383L52.9236 7.86725L58.0027 9.56023L35.9998 16.8946L13.997 9.56037L35.9998 2.22615L50.9202 7.19963L51.5881 5.19622L35.9998 0L7.31885 9.56037L19.4572 13.6065V31.3844ZM61.6937 25.1879V28.3556H58.174V25.1879C58.174 24.2174 58.9634 23.428 59.9338 23.428C60.9043 23.428 61.6937 24.2174 61.6937 25.1879ZM21.569 14.3104L35.9998 19.1207L50.4306 14.3104V22.5833H47.826V24.6951H50.4306V26.8069H45.855V28.9188H50.4306V30.1918C49.0698 30.8545 44.6914 32.5793 35.9998 32.5793C27.3016 32.5793 22.9231 30.8518 21.569 30.1923V14.3104Z" />
      <path d="M12.3477 61.4409H14.4595V63.5527H12.3477V61.4409Z" />
      <path d="M41.6313 26.8071H43.7432V28.919H41.6313V26.8071Z" />
   </symbol>
   <symbol viewBox="0 0 72 72" width="72" height="72" id="icon-04">
      <path d="M70.8006 3.14169e-08C70.8005 3.14169e-08 70.8002 3.14169e-08 70.8 3.14169e-08H1.2C0.53745 -0.000149969 0.00015 0.53685 0 1.1994C0 1.19955 0 1.19985 0 1.2V25.2H2.4V2.4H69.6V28.8H27.6V31.2H70.8C71.4626 31.2002 71.9999 30.6632 72 30.0006C72 30.0005 72 30.0002 72 30V1.2C72.0002 0.53745 71.4632 0.000150031 70.8006 3.14169e-08Z" />
      <path d="M63.6001 6H39.6001V8.4H63.6001V6Z" />
      <path d="M67.1999 13.2002H43.2V15.6002H67.1999V13.2002Z" />
      <path d="M62.3999 20.3999H38.3999V22.7999H62.3999V20.3999Z" />
      <path d="M38.3043 10.3459C37.4827 8.37115 35.2159 7.43635 33.2413 8.2579C33.2076 8.272 33.174 8.2864 33.1407 8.3014L23.4105 13.3489C23.7942 12.5536 23.9956 11.6827 24 10.7998C24 7.48615 21.3136 4.7998 18 4.7998C14.6863 4.7998 12 7.48615 12 10.7998C12.0045 12.1023 12.4369 13.3672 13.2307 14.3998H13.1808C9.7746 14.4226 6.73395 16.5402 5.5314 19.7272L2.328 30.7686C1.5654 32.7495 2.553 34.9737 4.53405 35.7363C5.43735 36.084 6.4386 36.0781 7.33785 35.7198C8.37105 35.3035 9.17505 34.4629 9.5451 33.4123L10.8 29.4186V46.786C9.7674 45.9924 8.50245 45.5599 7.2 45.5553C3.8913 45.5503 1.20495 48.2286 1.2 51.5374C1.1976 53.1579 1.8516 54.7101 3.01305 55.8402C1.16985 56.7819 0.00720003 58.6743 3.14169e-08 60.7439V70.7998C-0.000149969 71.4623 0.53685 71.9996 1.1994 71.9998C1.19955 71.9998 1.19985 71.9998 1.2 71.9998H13.2C13.8625 72 14.3998 71.463 14.4 70.8004C14.4 70.8002 14.4 70.7999 14.4 70.7998V60.7439C14.3941 59.0431 13.6039 57.4402 12.2586 56.3998H21.3415C19.996 57.4402 19.2059 59.0431 19.2001 60.7439V70.7998C19.2 71.4623 19.737 71.9996 20.3995 71.9998C20.3997 71.9998 20.4 71.9998 20.4002 71.9998H32.4002C33.0627 72 33.6 71.463 33.6001 70.8004C33.6001 70.8002 33.6001 70.7999 33.6001 70.7998V60.7439C33.5929 58.6743 32.4303 56.7819 30.5871 55.8402C32.9563 53.5276 33.0024 49.7322 30.6898 47.3629C29.2657 45.9039 27.1977 45.2686 25.2001 45.6766V21.1287L36.2163 15.4087C38.1909 14.5873 39.1257 12.3205 38.3043 10.3459ZM18 7.1998C19.9882 7.1998 21.6 8.81155 21.6 10.7998C21.6 12.7881 19.9882 14.3998 18 14.3998C16.0126 14.3977 14.4021 12.7872 14.4 10.7998C14.4 8.81155 16.0117 7.1998 18 7.1998ZM7.2 47.9553C9.18825 47.9553 10.8 49.567 10.8 51.5553C10.8 53.5435 9.18825 55.1553 7.2 55.1553C5.21175 55.1553 3.6 53.5435 3.6 51.5553C3.6021 49.5679 5.21265 47.9575 7.2 47.9553ZM12 69.5998H2.4V60.7439C2.4024 59.0083 3.80895 57.6019 5.54475 57.5998H8.85525C10.5909 57.6019 11.9976 59.0083 12 60.7439V69.5998ZM31.2 60.7439V69.5998H21.6V60.7439C21.6024 59.0083 23.0089 57.6019 24.7447 57.5998H28.0552C29.791 57.6019 31.1976 59.0083 31.2 60.7439ZM26.4 47.9553C28.3873 47.9574 29.9979 49.5679 30 51.5553C30 53.5435 28.3882 55.1553 26.4 55.1553C24.4117 55.1553 22.8 53.5435 22.8 51.5553C22.8 49.567 24.4117 47.9553 26.4 47.9553ZM36.1084 12.3478C35.9478 12.76 35.618 13.0836 35.2026 13.2361L23.4475 19.3345C23.0497 19.5409 22.8 19.9518 22.8 20.3998V46.786C20.5522 48.448 19.7736 51.456 20.9328 53.9998H19.2V33.5998H16.8V53.9998H12.6672C13.0086 53.2453 13.1884 52.4278 13.1955 51.5998H13.2V21.5998C13.1998 20.937 12.6624 20.3998 11.9997 20.4C11.4757 20.4001 11.0124 20.7402 10.8552 21.2401L7.272 32.6424C7.0005 33.3912 6.17325 33.7782 5.42445 33.5065C5.37195 33.4875 5.3205 33.4654 5.2704 33.4404C4.57815 33.0826 4.2843 32.2474 4.6002 31.5349L7.80345 20.4936C8.6673 18.2751 10.7998 16.8102 13.1806 16.7998H21.6774C21.8697 16.8001 22.0593 16.7538 22.23 16.6651L34.1568 10.4742C34.8723 10.1757 35.697 10.4811 36.0453 11.1738C36.2299 11.5389 36.2529 11.9649 36.1084 12.3478Z" />
      <path d="M49.7869 55.8406C52.1603 53.5282 52.2098 49.7294 49.8974 47.3559C47.585 44.9825 43.7863 44.933 41.4128 47.2454C39.0394 49.5578 38.9899 53.3566 41.3023 55.73C41.3387 55.7674 41.3756 55.8043 41.413 55.8406C39.5699 56.7823 38.4071 58.6746 38.3999 60.7443V70.8002C38.3998 71.4627 38.9368 72 39.5993 72.0002C39.5995 72.0002 39.5998 72.0002 39.5999 72.0002H51.5999C52.2625 72.0003 52.7998 71.4633 52.7999 70.8008C52.7999 70.8006 52.7999 70.8003 52.7999 70.8002V60.7443C52.7927 58.6746 51.6301 56.7823 49.7869 55.8406ZM45.5999 47.9557C47.5882 47.9557 49.1999 49.5674 49.1999 51.5557C49.1999 53.5439 47.5882 55.1557 45.5999 55.1557C43.6117 55.1557 41.9999 53.5439 41.9999 51.5557C42.002 49.5683 43.6126 47.9579 45.5999 47.9557ZM50.3999 69.6002H40.7999V60.7443C40.8023 59.0087 42.2089 57.6023 43.9447 57.6002H47.2552C48.9908 57.6023 50.3975 59.0087 50.3999 60.7443V69.6002Z" />
      <path d="M68.987 55.8406C71.3605 53.5282 71.41 49.7294 69.0976 47.3559C66.7852 44.9825 62.9864 44.933 60.613 47.2454C58.2395 49.5578 58.19 53.3566 60.5024 55.73C60.5389 55.7674 60.5758 55.8043 60.6131 55.8406C58.7701 56.7823 57.6073 58.6746 57.6001 60.7443V70.8002C57.5999 71.4627 58.1369 72 58.7995 72.0002C58.7996 72.0002 58.7999 72.0002 58.8001 72.0002H70.8001C71.4626 72.0003 71.9999 71.4633 72.0001 70.8008C72.0001 70.8006 72.0001 70.8003 72.0001 70.8002V60.7443C71.9929 58.6746 70.8302 56.7823 68.987 55.8406ZM64.8001 47.9557C66.7883 47.9557 68.4001 49.5674 68.4001 51.5557C68.4001 53.5439 66.7883 55.1557 64.8001 55.1557C62.8118 55.1557 61.2001 53.5439 61.2001 51.5557C61.2022 49.5683 62.8127 47.9579 64.8001 47.9557ZM69.6001 69.6002H60.0001V60.7443C60.0025 59.0087 61.409 57.6023 63.1448 57.6002H66.4553C68.191 57.6023 69.5977 59.0087 69.6001 60.7443V69.6002Z" />
   </symbol>
   <symbol width="20" height="21" viewBox="0 0 20 21" id="id-basket">
      <path d="M6.66667 8.83333H4.16667L2.5 18H17.5L15.8333 8.83333H13.3333M6.66667 8.83333V6.33333C6.66667 4.49239 8.15905 3 10 3V3C11.8409 3 13.3333 4.49238 13.3333 6.33333V8.83333M6.66667 8.83333H13.3333M6.66667 8.83333V11.3333M13.3333 8.83333V11.3333" stroke="currentColor" stroke-width="1.3" stroke-linecap="round" stroke-linejoin="round" />
   </symbol>
</svg>